<?xml version="1.0" encoding="UTF-8" standalone="no"?><!DOCTYPE svg PUBLIC "-//W3C//DTD SVG 1.1//EN" "http://www.w3.org/Graphics/SVG/1.1/DTD/svg11.dtd"><svg width="100%" height="100%" viewBox="0 0 1796 721" version="1.1" xmlns="http://www.w3.org/2000/svg" xmlns:xlink="http://www.w3.org/1999/xlink" xml:space="preserve" xmlns:serif="http://www.serif.com/" style="fill-rule:evenodd;clip-rule:evenodd;stroke-linejoin:round;stroke-miterlimit:2;"><g id="Text" transform="matrix(1,0,0,1,-773.882,-617.64)"><g transform="matrix(83.3333,0,0,83.3333,1037.73,1284.77)"><path d="M0.737,-0.353c0,-0.206 -0.145,-0.359 -0.337,-0.359c-0.21,0 -0.358,0.149 -0.358,0.361c0,0.205 0.137,0.363 0.348,0.363c0.212,-0 0.347,-0.16 0.347,-0.365Zm-0.22,0.006c-0,0.142 -0.043,0.213 -0.128,0.213c-0.114,-0 -0.128,-0.13 -0.128,-0.216c-0,-0.084 0.016,-0.216 0.127,-0.216c0.088,-0 0.129,0.071 0.129,0.219Z" /></g><g transform="matrix(83.3333,0,0,83.3333,1101.81,1284.77)"><path d="M0.566,-0.014l-0.186,-0.263l0.16,-0.209l-0.152,-0.024l-0.084,0.126l-0.072,-0.126l-0.208,0.024l0.155,0.231l-0.182,0.241l0.159,0.024l0.11,-0.15l0.088,0.15l0.212,-0.024Z" /></g><g transform="matrix(83.3333,0,0,83.3333,1147.89,1284.77)"><path d="M0.432,-0.71c-0.043,-0.015 -0.088,-0.024 -0.137,-0.024c-0.065,0 -0.117,0.015 -0.157,0.048c-0.044,0.035 -0.062,0.077 -0.062,0.139l0,0.047l-0.081,-0l0,0.093l0.081,-0l0,0.407l0.199,-0l0,-0.407l0.12,-0l0,-0.093l-0.12,-0l0,-0.053c0,-0.023 0.003,-0.04 0.012,-0.052c0.011,-0.015 0.029,-0.021 0.055,-0.021c0.02,0 0.037,0.003 0.064,0.013l0.026,-0.097Z" /></g><g transform="matrix(83.3333,0,0,83.3333,1178.14,1284.77)"><path d="M0.313,0.012c0.167,0 0.287,-0.112 0.287,-0.267c-0,-0.147 -0.121,-0.257 -0.284,-0.257c-0.17,0 -0.29,0.107 -0.29,0.258c-0,0.155 0.119,0.266 0.287,0.266Zm-0.001,-0.089c-0.051,-0 -0.083,-0.069 -0.083,-0.175c-0,-0.104 0.032,-0.171 0.083,-0.171c0.054,0 0.084,0.062 0.084,0.172c-0,0.109 -0.031,0.174 -0.084,0.174Z" /></g><g transform="matrix(83.3333,0,0,83.3333,1229.48,1284.77)"><path d="M0.481,-0.472c-0.037,-0.027 -0.068,-0.04 -0.099,-0.04c-0.046,0 -0.08,0.039 -0.106,0.096c-0.004,0.009 -0.01,0.021 -0.015,0.032l0,-0.116l-0.199,0l0,0.5l0.199,-0l0,-0.174c0,-0.064 0.003,-0.084 0.013,-0.106c0.015,-0.033 0.048,-0.057 0.091,-0.057c0.019,0 0.042,0.004 0.061,0.013l0.055,-0.148Z" style=""/></g><g transform="matrix(83.3333,0,0,83.3333,1267.81,1284.77)"><path d="M0.6,-0l0,-0.734l-0.194,0l0,0.301c-0.038,-0.054 -0.087,-0.079 -0.154,-0.079c-0.131,0 -0.227,0.111 -0.227,0.261c0,0.135 0.074,0.263 0.221,0.263c0.063,-0 0.103,-0.019 0.16,-0.079l0,0.067l0.194,-0Zm-0.278,-0.09c-0.052,-0 -0.087,-0.066 -0.087,-0.162c-0,-0.098 0.031,-0.156 0.082,-0.156c0.056,0 0.089,0.056 0.089,0.156c0,0.099 -0.033,0.162 -0.084,0.162Z" /></g><g transform="matrix(83.3333,0,0,83.3333,1343.48,1284.77)"><path d="M0.498,-0.567l0,-0.133l-0.426,0l0,0.7l0.21,-0l0,-0.264l0.211,0l0,-0.134l-0.211,0l0,-0.169l0.216,0Z" /></g><g transform="matrix(83.3333,0,0,83.3333,1385.48,1284.77)"><path d="M0.163,-0.548c0.055,0 0.1,-0.045 0.1,-0.102c0,-0.056 -0.043,-0.101 -0.099,-0.101c-0.061,0 -0.104,0.043 -0.104,0.105c0,0.053 0.047,0.098 0.103,0.098Zm0.098,0.548l0,-0.5l-0.199,0l0,0.5l0.199,-0Z" /></g><g transform="matrix(83.3333,0,0,83.3333,1411.56,1284.77)"><path d="M0.592,-0.5l-0.199,0l0,0.067c-0.036,-0.054 -0.083,-0.079 -0.147,-0.079c-0.127,0 -0.221,0.111 -0.221,0.261c0,0.131 0.068,0.263 0.214,0.263c0.062,-0 0.1,-0.02 0.154,-0.079l0,0.056c0,0.047 -0.008,0.082 -0.046,0.113c-0.025,0.019 -0.059,0.029 -0.098,0.029c-0.055,0 -0.103,-0.014 -0.154,-0.042l-0.029,0.117c0.078,0.029 0.15,0.044 0.226,0.044c0.157,0 0.252,-0.07 0.287,-0.212c0.011,-0.044 0.013,-0.075 0.013,-0.178l0,-0.36Zm-0.276,0.41c-0.048,-0 -0.081,-0.066 -0.081,-0.162c0,-0.098 0.028,-0.156 0.076,-0.156c0.053,0 0.082,0.056 0.082,0.156c0,0.099 -0.03,0.162 -0.077,0.162Z" /></g><g transform="matrix(83.3333,0,0,83.3333,1465.06,1284.77)"><path d="M0.6,-0l0,-0.5l-0.2,0l0,0.282c0,0.025 -0.003,0.045 -0.01,0.061c-0.012,0.028 -0.034,0.041 -0.069,0.041c-0.025,-0 -0.043,-0.008 -0.053,-0.027c-0.008,-0.014 -0.012,-0.035 -0.012,-0.061l0,-0.296l-0.199,-0l0,0.291c0,0.077 0.005,0.109 0.02,0.139c0.027,0.054 0.084,0.082 0.156,0.082c0.072,-0 0.119,-0.024 0.167,-0.085l0,0.073l0.2,-0Z" /></g><g transform="matrix(83.3333,0,0,83.3333,1519.39,1284.77)"><path d="M0.481,-0.472c-0.037,-0.027 -0.068,-0.04 -0.099,-0.04c-0.046,0 -0.08,0.039 -0.106,0.096c-0.004,0.009 -0.01,0.021 -0.015,0.032l0,-0.116l-0.199,0l0,0.5l0.199,-0l0,-0.174c0,-0.064 0.003,-0.084 0.013,-0.106c0.015,-0.033 0.048,-0.057 0.091,-0.057c0.019,0 0.042,0.004 0.061,0.013l0.055,-0.148Z" /></g><g transform="matrix(83.3333,0,0,83.3333,1557.98,1284.77)"><path d="M0.489,-0.142c-0.045,0.022 -0.085,0.035 -0.13,0.035c-0.072,0 -0.123,-0.039 -0.124,-0.119l0.307,0c0.001,-0.016 0.001,-0.032 0.001,-0.044c0,-0.059 -0.015,-0.112 -0.044,-0.154c-0.041,-0.06 -0.105,-0.088 -0.193,-0.088c-0.077,0 -0.142,0.021 -0.192,0.062c-0.055,0.045 -0.088,0.118 -0.088,0.19c-0,0.076 0.035,0.154 0.097,0.206c0.053,0.045 0.116,0.066 0.195,0.066c0.072,-0 0.147,-0.018 0.224,-0.054l-0.053,-0.1Zm-0.115,-0.168l-0.139,0c-0,-0.081 0.022,-0.119 0.07,-0.119c0.046,0 0.069,0.035 0.069,0.1l-0,0.019Z" /></g><g transform="matrix(83.3333,0,0,83.3333,1626.56,1284.77)"><rect x="0.072" y="-0.7" width="0.21" height="0.7" /></g><g transform="matrix(83.3333,0,0,83.3333,1655.23,1284.77)"><path d="M0.445,-0.135c-0.043,0.015 -0.057,0.019 -0.083,0.019c-0.072,0 -0.126,-0.059 -0.126,-0.136c0,-0.082 0.048,-0.133 0.125,-0.133c0.026,0 0.051,0.005 0.085,0.017l0.051,-0.102c-0.053,-0.028 -0.106,-0.042 -0.168,-0.042c-0.174,0 -0.303,0.115 -0.303,0.268c0,0.163 0.134,0.256 0.286,0.256c0.073,-0 0.123,-0.011 0.185,-0.041l-0.052,-0.106Z" /></g><g transform="matrix(83.3333,0,0,83.3333,1696.48,1284.77)"><path d="M0.489,-0.142c-0.045,0.022 -0.085,0.035 -0.13,0.035c-0.072,0 -0.123,-0.039 -0.124,-0.119l0.307,0c0.001,-0.016 0.001,-0.032 0.001,-0.044c0,-0.059 -0.015,-0.112 -0.044,-0.154c-0.041,-0.06 -0.105,-0.088 -0.193,-0.088c-0.077,0 -0.142,0.021 -0.192,0.062c-0.055,0.045 -0.088,0.118 -0.088,0.19c-0,0.076 0.035,0.154 0.097,0.206c0.053,0.045 0.116,0.066 0.195,0.066c0.072,-0 0.147,-0.018 0.224,-0.054l-0.053,-0.1Zm-0.115,-0.168l-0.139,0c-0,-0.081 0.022,-0.119 0.07,-0.119c0.046,0 0.069,0.035 0.069,0.1l-0,0.019Z" /></g><g transform="matrix(83.3333,0,0,83.3333,1765.06,1284.77)"><path d="M0.513,-0.199c0,-0.065 -0.025,-0.106 -0.063,-0.149c-0.037,-0.041 -0.123,-0.103 -0.156,-0.138c-0.015,-0.015 -0.026,-0.029 -0.026,-0.051c0,-0.026 0.022,-0.044 0.062,-0.044c0.032,0 0.059,0.007 0.099,0.026l0.056,-0.11c-0.06,-0.032 -0.121,-0.047 -0.185,-0.047c-0.147,0 -0.247,0.072 -0.247,0.183c-0,0.055 0.02,0.092 0.062,0.137c0.029,0.031 0.132,0.112 0.154,0.135c0.017,0.018 0.033,0.039 0.033,0.07c-0,0.041 -0.041,0.068 -0.089,0.068c-0.043,0 -0.089,-0.018 -0.127,-0.05l-0.064,0.116c0.067,0.045 0.137,0.065 0.221,0.065c0.162,0 0.27,-0.083 0.27,-0.211Z" /></g><g transform="matrix(83.3333,0,0,83.3333,1810.73,1284.77)"><path d="M0.614,-0.043l-0.181,-0.241l0.142,-0.174l-0.153,-0.05l-0.147,0.198l-0.014,0l0,-0.424l-0.199,0l0,0.734l0.199,-0l0,-0.254l0.165,0.264l0.188,-0.053Z" /></g><g transform="matrix(83.3333,0,0,83.3333,1856.89,1284.77)"><path d="M0.55,-0c-0.014,-0.044 -0.018,-0.067 -0.018,-0.157l0,-0.116c0,-0.089 -0.007,-0.126 -0.035,-0.162c-0.038,-0.05 -0.108,-0.077 -0.197,-0.077c-0.086,0 -0.154,0.02 -0.229,0.069l0.056,0.089c0.045,-0.038 0.083,-0.054 0.124,-0.054c0.041,-0 0.07,0.016 0.089,0.05c-0.012,0.002 -0.054,0.011 -0.081,0.017c-0.07,0.015 -0.13,0.039 -0.161,0.063c-0.043,0.034 -0.071,0.079 -0.071,0.138c0,0.083 0.07,0.152 0.15,0.152c0.038,-0 0.098,-0.012 0.156,-0.067c0,0.026 0.002,0.037 0.007,0.055l0.21,-0Zm-0.29,-0.108c-0.027,-0 -0.052,-0.028 -0.052,-0.058c0,-0.051 0.047,-0.068 0.089,-0.08c0.017,-0.005 0.033,-0.009 0.042,-0.011l0,0.045c0,0.018 -0.005,0.046 -0.011,0.06c-0.012,0.027 -0.043,0.044 -0.068,0.044Z" /></g><g transform="matrix(83.3333,0,0,83.3333,1905.73,1284.77)"><path d="M0.401,-0.109c-0.02,0.009 -0.039,0.013 -0.056,0.013c-0.048,0 -0.069,-0.04 -0.069,-0.137l0,-0.176l0.132,0l0,-0.091l-0.132,0l0,-0.15l-0.199,0.029l-0,0.121l-0.07,0l-0,0.091l0.07,0l-0,0.236c-0,0.075 0.006,0.099 0.028,0.129c0.028,0.037 0.076,0.056 0.145,0.056c0.059,0 0.118,-0.011 0.175,-0.031l-0.024,-0.09Z" /></g><g transform="matrix(83.3333,0,0,83.3333,1940.81,1284.77)"><path d="M0.163,-0.548c0.055,0 0.1,-0.045 0.1,-0.102c0,-0.056 -0.043,-0.101 -0.099,-0.101c-0.061,0 -0.104,0.043 -0.104,0.105c0,0.053 0.047,0.098 0.103,0.098Zm0.098,0.548l0,-0.5l-0.199,0l0,0.5l0.199,-0Z" /></g><g transform="matrix(83.3333,0,0,83.3333,1966.89,1284.77)"><path d="M0.605,-0l0,-0.291c0,-0.075 -0.005,-0.107 -0.019,-0.136c-0.026,-0.054 -0.085,-0.085 -0.157,-0.085c-0.072,0 -0.12,0.024 -0.168,0.085l0,-0.073l-0.199,0l0,0.5l0.199,-0l0,-0.281c0,-0.025 0.003,-0.046 0.01,-0.062c0.012,-0.028 0.034,-0.042 0.069,-0.042c0.025,0 0.044,0.009 0.054,0.028c0.008,0.014 0.012,0.034 0.012,0.061l0,0.296l0.199,-0Z" /></g><g transform="matrix(83.3333,0,0,83.3333,2021.64,1284.77)"><path d="M0.592,-0.5l-0.199,0l0,0.067c-0.036,-0.054 -0.083,-0.079 -0.147,-0.079c-0.127,0 -0.221,0.111 -0.221,0.261c0,0.131 0.068,0.263 0.214,0.263c0.062,-0 0.1,-0.02 0.154,-0.079l0,0.056c0,0.047 -0.008,0.082 -0.046,0.113c-0.025,0.019 -0.059,0.029 -0.098,0.029c-0.055,0 -0.103,-0.014 -0.154,-0.042l-0.029,0.117c0.078,0.029 0.15,0.044 0.226,0.044c0.157,0 0.252,-0.07 0.287,-0.212c0.011,-0.044 0.013,-0.075 0.013,-0.178l0,-0.36Zm-0.276,0.41c-0.048,-0 -0.081,-0.066 -0.081,-0.162c0,-0.098 0.028,-0.156 0.076,-0.156c0.053,0 0.082,0.056 0.082,0.156c0,0.099 -0.03,0.162 -0.077,0.162Z" /></g><g transform="matrix(83.3333,0,0,83.3333,2096.48,1284.77)"><path d="M0.594,-0.15c-0.042,0.012 -0.071,0.016 -0.108,0.016c-0.153,0 -0.225,-0.098 -0.225,-0.215c0,-0.133 0.093,-0.217 0.227,-0.217c0.032,-0 0.058,0.004 0.099,0.015l0.052,-0.126c-0.067,-0.025 -0.121,-0.035 -0.187,-0.035c-0.235,0 -0.41,0.153 -0.41,0.362c0,0.219 0.173,0.362 0.416,0.362c0.061,-0 0.121,-0.011 0.175,-0.03l-0.039,-0.132Z" /></g><g transform="matrix(83.3333,0,0,83.3333,2150.23,1284.77)"><rect x="0.062" y="-0.734" width="0.199" height="0.734" /></g><g transform="matrix(83.3333,0,0,83.3333,2176.31,1284.77)"><path d="M0.6,-0l0,-0.5l-0.2,0l0,0.282c0,0.025 -0.003,0.045 -0.01,0.061c-0.012,0.028 -0.034,0.041 -0.069,0.041c-0.025,-0 -0.043,-0.008 -0.053,-0.027c-0.008,-0.014 -0.012,-0.035 -0.012,-0.061l0,-0.296l-0.199,-0l0,0.291c0,0.077 0.005,0.109 0.02,0.139c0.027,0.054 0.084,0.082 0.156,0.082c0.072,-0 0.119,-0.024 0.167,-0.085l0,0.073l0.2,-0Z" /></g><g transform="matrix(83.3333,0,0,83.3333,2230.64,1284.77)"><path d="M0.401,0.012c0.133,0 0.236,-0.119 0.236,-0.273c0,-0.149 -0.088,-0.251 -0.218,-0.251c-0.067,0 -0.111,0.02 -0.163,0.079l0,-0.301l-0.194,0l0,0.734l0.194,-0l0,-0.067c0.053,0.06 0.087,0.079 0.145,0.079Zm-0.064,-0.103c-0.05,0 -0.082,-0.063 -0.082,-0.16c0,-0.097 0.034,-0.157 0.088,-0.157c0.052,0 0.084,0.059 0.084,0.153c0,0.053 -0.011,0.097 -0.029,0.126c-0.015,0.024 -0.036,0.038 -0.061,0.038Z" /></g></g><path id="Border" d="M1795.28,359.039c-0.088,-198.249 -158.034,-359.129 -352.491,-359.039l-1090.61,0.505c-194.457,0.09 -352.259,161.116 -352.171,359.364l0.001,1.565c0.088,198.249 158.034,359.128 352.49,359.038l1090.61,-0.504c194.456,-0.09 352.259,-161.116 352.171,-359.365l-0.001,-1.564Zm-26.23,1.066c-0.082,-185.235 -147.66,-335.554 -329.351,-335.47l-1088.72,0.504c-181.692,0.084 -329.136,150.539 -329.053,335.774l0.001,1.462c0.082,185.235 147.66,335.554 329.351,335.47l1088.72,-0.504c181.692,-0.084 329.135,-150.54 329.053,-335.775l-0.001,-1.461Z"/><g id="Large"><path id="C" d="M1500.59,473.36c-24.857,7.2 -42.02,9.6 -63.917,9.6c-90.55,0 -133.161,-58.8 -133.161,-129c-0,-79.8 55.04,-130.2 134.344,-130.2c18.939,0 34.326,2.4 58.591,9l30.775,-75.6c-39.652,-15 -71.611,-21 -110.671,-21c-139.079,0 -242.649,91.8 -242.649,217.2c0,131.4 102.386,217.2 246.2,217.2c36.101,0 71.61,-6.6 103.569,-18l-23.081,-79.2Z" /><path id="S" d="M1211.07,443.942c0,-39 -14.795,-63.6 -37.285,-89.4c-21.897,-24.6 -72.794,-61.8 -92.325,-82.8c-8.877,-9 -15.387,-17.4 -15.387,-30.6c-0,-15.6 13.02,-26.4 36.693,-26.4c18.939,0 34.918,4.2 58.591,15.6l33.142,-66c-35.509,-19.2 -71.611,-28.2 -109.488,-28.2c-86.998,0 -146.181,43.2 -146.181,109.8c0,33 11.837,55.2 36.694,82.2c17.163,18.6 78.121,67.2 91.141,81c10.061,10.8 19.53,23.4 19.53,42c0,24.6 -24.265,40.8 -52.672,40.8c-25.449,0 -52.673,-10.8 -75.162,-30l-37.877,69.6c39.652,27 81.08,39 130.793,39c95.876,0 159.793,-49.8 159.793,-126.6Z" /><path id="Spinning-Skater" serif:id="Spinning Skater" d="M604.929,351.542c-0,-123.6 -85.815,-215.4 -199.445,-215.4c-124.284,0 -211.874,89.4 -211.874,216.6c0,123 81.08,217.8 205.955,217.8c125.467,0 205.364,-96 205.364,-219Zm-236.78,182.912c-8.443,-0.88 -20.795,-3.848 -29.823,-5.275c-8.089,-1.28 -24.393,-2.281 -27.756,-3.544c-0.596,-0.223 -1.447,-4.098 0.591,-4.724c2.22,-0.683 6.837,1.251 8.267,-0c1.321,-1.156 1.909,-2.627 2.363,-3.543c1.822,-3.686 -5.936,-1.055 -5.906,-8.268c0.016,-3.839 2.847,-7.551 6.496,-12.992c2.623,-3.912 6.414,-7.636 7.677,-11.221c0.487,-1.38 -3.612,-2.753 -3.053,-4.134c4.005,-9.903 10.478,-20.38 24.477,-40.525l25,-29.981l0,-4.283c-4.166,-0 -16.666,-8.566 -29.166,-12.849c-45.834,-17.132 -60.238,-48.534 -52.202,-73.314c4.645,-14.328 11.598,-16.318 18,-24c10,-12 8.993,-13.246 17.073,-25.845c12.927,-20.155 31.486,-30.936 42.129,-35.312l16.666,-8.566l0,-21.415c-4.166,-17.132 -4.166,-21.415 4.167,-29.981c16.667,-12.849 54.167,-8.566 54.167,8.566l-0,4.283l-8.334,-0l0,12.849c0,7.219 1.611,14.043 0.132,19.421c-0.416,1.509 -5,-1 -6,1c-1.669,3.336 1,9 -1,13c-3.493,6.985 -11.632,3.626 -13.965,5.126c-1.065,0.684 -1.113,3.209 -0.035,3.874c3.472,2.141 20.868,8.975 20.868,8.975c12.5,4.283 25,8.566 25,8.566c1.821,-0 16.542,4.628 33.31,8.003c9.978,2.009 20.68,3.574 29.822,3.456c2.628,-0.034 -1.519,4.966 0.354,5.366c7.646,1.634 6.918,0.634 13.646,0.634c10,-0 12,3 11,4c-3.536,3.535 -17.034,-0.278 -20,4c-0.664,0.956 10,8 8,11c-2.017,3.024 -7.339,-3.374 -11,-5c-2.79,-1.239 -5.072,-0.446 -5.888,-0.024c-1.418,0.734 1.575,5.062 -0.112,5.024c-24.784,-0.557 -61.612,-4.974 -84.132,-10.761c-29.166,-8.566 -29.166,-8.566 -50,12.849c-16.666,8.566 -25,21.415 -25,25.698c0,4.283 7.349,17.679 15.683,26.245c11.73,12.058 9.92,6.138 23.622,24.803c9.262,12.617 9.844,21.311 15.354,27.166c10.698,11.368 25.789,18.548 35.433,25.984c1.954,1.506 -6.705,3.407 -4.724,4.724c9.077,6.035 18.361,9.499 27.132,11.002c12.5,4.283 24.087,8.023 29.167,12.849c-0,-0 6.337,5.348 5.118,8.039c-1.473,3.253 -9.285,4.81 -9.285,4.81c-8.283,2.712 -14.956,1.593 -29.691,-0.086c-11.71,-1.333 -22.416,-3.328 -34.252,-11.811c-2.849,-2.041 -1.621,4.507 -3.544,3.544c-9.908,-4.966 -20.727,-18.08 -24.179,-21.628c-4.167,-4.283 -8.334,-8.566 -8.334,-8.566c-2.494,-0 -20.031,25.936 -31.266,38.461c-5.325,5.937 -5.574,12.821 -8.268,17.126c-2.062,3.296 -6.299,3.632 -6.299,4.375c-0,-0 10.31,10.664 16.339,13.933c5.914,3.206 15.99,4.465 18.307,8.267c2.974,4.882 2.16,17.06 -1.313,20.63c-3.472,3.569 -13.924,0.719 -20.833,-0Zm12.106,-11.181c-1.314,-0.851 -7.956,-2.485 -10.039,-1.772c-1.864,0.639 -1.596,5.8 -0,5.906c1.596,0.106 10.276,0.614 12.401,1.181c1.171,0.313 -1.659,-4.86 -2.362,-5.315Zm-23.622,-4.134c-4.166,-2.141 -13.32,-5.084 -17.651,-6.1c-2.708,-0.636 -6.944,-1.428 -8.333,-0c-1.389,1.427 -1.389,6.444 -0,7.872c1.389,1.428 5.528,1.302 8.268,1.772c4.166,0.713 12.565,2.491 16.732,3.205c2.74,0.469 8.169,1.124 8.333,-0c0.164,-1.125 -4.411,-5.239 -7.349,-6.749Z" /><path id="F" d="M715.004,143.211c-12,-0 -13,4 -22,4c-10,-0 -9.383,-3.978 -19.033,-3.967c-42.161,0.044 -93.263,0.116 -93.263,0.116l-0,420l124.283,0l-0,-158.4l117.432,0c-1.08,-7.703 -1.608,-17.37 -0.357,-26.72c1.452,-10.852 6.33,-15.073 7.8,-23.636l0,-2.167c-1.358,-1.6 -8.8,0.953 -8.8,-5.197c0,-2.558 4.375,-9.61 8.8,-16.398l0,-6.282l-124.875,0l-0,-101.4l117.599,0c-1.817,-2.594 -3.697,-4.814 -5.857,-7.034c-29.167,-17.132 -70.729,-51.915 -82.729,-63.915c-3.798,-3.799 -8.95,-9 -19,-9Z" /></g><g id="Final-Skaters-Duplicate--Middle-" serif:id="Final Skaters Duplicate (Middle)"><path id="Extending-Skater" serif:id="Extending Skater" d="M876.066,572.24c12.5,-0 32.167,-5.167 33,-6c0.737,-0.737 -0.076,-5.535 -1,-6c-1.055,-0.532 -4.417,2.032 -6,2c-1.388,-0.028 -4.5,1.237 -4.5,-0.191c0,-2.142 4.167,-12.849 4.167,-12.849c-0,-8.566 -4.167,-21.415 -8.334,-42.83c-25,-68.528 -25,-64.245 -8.333,-94.226c18.93,-25.945 29.893,-54.064 35,-71.904c1.638,-5.721 8.333,3.756 7,-9c-4.167,-8.566 -4.5,-47.586 -0.333,-73.284c-0,-8.566 8.333,-34.264 12.5,-55.679c16.666,-98.509 20.833,-119.924 33.333,-132.773c8.333,-8.566 12.5,-12.396 12.5,-16.264c0,-1.42 -2.761,-0.508 -4,-0c-1.389,0.569 -4.305,4.987 -4.333,3.415c-0.028,-1.572 3.111,-8.947 4.166,-12.849c0.938,-3.468 4.334,-9.566 2.167,-10.566c-1.418,-0.655 -9.451,9.849 -10.5,14.849c-1.5,7.151 -8.5,14.151 -12.5,21.415c-9.363,17.004 -29.167,59.962 -33.333,85.66c-0,21.415 -12.5,47.113 -20.834,47.113c0,-0 -4.166,-4.283 -8.333,-8.566l-4.167,-8.566l16.667,-8.566l-4.167,-12.849c-8.333,-21.415 -20.833,-25.698 -37.5,-25.698c-8.333,-0 -16.666,-0 -20.833,8.566c-8.333,12.849 -12.5,29.981 -8.333,38.547c-0,-0 5.555,7.852 4.166,8.566c-1.388,0.714 -8.333,0.529 -12.5,-4.283c-4.497,-5.195 -16.796,-8.309 -25,-12.849c-9.027,-4.997 -20.833,-12.849 -29.166,-17.132c-29.167,-21.415 -48.472,-28.069 -61.667,-35.207c-5.496,-2.974 -10.833,-5.859 -15,-8c-2.778,-1.428 -6.917,-3.286 -9,-4c-1.317,-0.452 -5,-2 -6,0.094c-0.615,1.288 3.516,4.99 6,6.906c2.778,2.141 8.419,4.161 10.667,5.943c1.333,1.057 3.333,2.057 4.333,3.057c2,2 0.722,4.082 0,5c-0.722,0.918 -2,1 -4.333,0.509c-1.706,-0.359 -5.667,0.491 -8.667,2.491c-1.162,0.775 -3,2 -3,3c0,1 1.605,3 3,3c2.333,-0 7,-3 11,-3c2.791,-0 8.509,-1.582 12,-1c6,1 18.959,4.033 27.333,12.641c12.5,12.849 54.167,47.113 83.334,64.245c8.333,8.566 12.5,17.132 25,47.113c12.5,38.547 3.333,43.001 -4.167,55.679c-4.233,7.156 -16.5,24.039 -16.5,28.322c0,6.907 9.385,2.837 9,6c-1.156,9.508 -6.473,13.587 -8,25c-2.122,15.858 0.873,32.628 3,39.187c4.167,8.566 -5,13.813 -4.167,21.415c0.641,5.844 -4.166,12.849 -4.166,17.132c-0,4.283 -8.334,21.415 -16.667,38.547c-8.333,17.132 -12.5,29.981 -12.5,38.547l4.167,8.566l-12.5,-0l-0,8.566l58.333,-0c0,1.939 -9.5,6.794 -9.5,15.04c0,5 1.417,10.708 4,12c2,1 34,-4 34,-4Zm-31,-3c-0.694,-0.714 3,-5 6,-7c3.721,-2.481 7.296,-2.704 8,-2c2,2 1.695,6.286 1,7c-0.694,0.714 -14.305,2.714 -15,2Zm23,-3c-1.242,-0.639 7.222,-8 10,-8c2.778,-0 9.639,-1.386 11.167,-0.474c1.528,0.912 2.104,4.168 0.833,5.474c-1.389,1.428 -6.083,1.484 -9,2c-2.737,0.484 -11.611,1.714 -13,1Zm-53.833,-29.889c-0,-4.283 12.5,-4.283 20.833,-0l8.333,4.283l-33.333,-0l4.167,-4.283Zm37.5,-21.415c-8.334,-4.283 -12.5,-12.849 -12.5,-21.415c-0,-8.566 8.333,-21.415 12.5,-21.415l4.166,-0l4.167,21.415c4.167,8.566 8.333,21.415 8.333,25.698l0,4.283l-4.166,-0c-0,-0 -8.334,-4.283 -12.5,-8.566Z" /></g></svg>